# xmcd
# 
# Track frame offsets:
#     150
#     21028
#     49998
#     72621
#     107870
#     129770
#     151435
#     172225
#     188987
#     226548
#     240667
#     257381
# 
# Disc length: 3649
# 
# Revision: 1
# Processed by: cddbd v1.5.2PL0 Copyright (c) Steve Scherf et al.
# Submitted via: fre:ac v1.0.27
# 
DISCID=9d0e3f0c
DTITLE=Super Chikan - Sum' Mo' Chikan
DYEAR=2007
DGENRE=Blues
TTITLE0=Freddy's Thang
TTITLE1=Crystal Ball Eyes
TTITLE2=Hookin' Up
TTITLE3=Yard Boy Blues
TTITLE4=Mexico City
TTITLE5=November Nights
TTITLE6=Full Moon Blues
TTITLE7=Peter Truck
TTITLE8=Crying About The Blues
TTITLE9=Love Cruiser
TTITLE10=Sippi' Seekan' Saw
TTITLE11=Coochie Daddy
EXTD=
EXTT0=
EXTT1=
EXTT2=
EXTT3=
EXTT4=
EXTT5=
EXTT6=
EXTT7=
EXTT8=
EXTT9=
EXTT10=
EXTT11=
PLAYORDER=
